# xmcd
#
# Track frame offsets:
#	150
#	22998
#	46407
#	71170
#	99579
#	122909
#	145952
#	166934
#
# Disc length: 2676 seconds
#
# Revision: 1
# Processed by: cddbd v1.5.2PL0 Copyright (c) Steve Scherf et al.
# Submitted via: audiograbber 1.83.01
#
DISCID=6d0a7208
DTITLE=Artistes variés - Les Shows Boréale Blues - Live au Sacrilège - Hiver 20
DTITLE=03
DYEAR=2003
DGENRE=Blues
TTITLE0=Jay Sewall - Medley Summertime (G. Gershwin) - St-Louis Blues (W.C. Han
TTITLE0=dy)
TTITLE1=André Lachance - Gilles Sioui - David Cardey - Don Godro - A Face in th
TTITLE1=e Crowd (Tom Petty)
TTITLE2=André Lachance - Gilles Sioui - David Cardey - Dan Godro - Black Water 
TTITLE2=Blues (Bessie Smith)
TTITLE3=Mike Robertson - Gilles Sioui - David Cardey - Dan Godro - Old Love (Er
TTITLE3=ic Clapton)
TTITLE4=Mike Robertson - Gilles Sioui - André Lachance - Daniel Lizotte - Epile
TTITLE4=ptic Camel (Mike Robertson)
TTITLE5=Jay Sewall (avec la participation du public) - Belle Amie Blues (Jay Se
TTITLE5=wall)
TTITLE6=Pat The White - Christian Leblanc - Benoit Cantin - Hey Bartender
TTITLE7=Pat The White - Christian Leblanc - Benoit Cantin - Lights Are On But N
TTITLE7=obody's Home (Albert Collins)
EXTD=Concept, production et graphisme: Neal Morgan et Martin Tétu\nPrise de son
EXTD=, co-réalisation, mixage et mastering: Jacques Ferland\nConception artisti
EXTD=que, réalisation et co-mixage: Pierre Robitaille\nPhotos: Hélène Couture\n
EXTD=Réalisé au Studio Sismique à Québec, avril 2003\nfreedb submitted by Bigue
EXTD=Nique@yahoo.ca\nhttp://radio.fiatlux.tk\n
EXTT0=
EXTT1=
EXTT2=
EXTT3=
EXTT4=
EXTT5=
EXTT6=
EXTT7=
PLAYORDER=
